Coordinates
nRows=17
nColumns=12

# SIMM Motion File Header:
name Coordinates
datacolumns 12
datarows 17
otherdata 1
range 0.00000000000000000000 0.01600000000000000000
endheader
time	pelvis_tilt	hip_angle_r	knee_angle_r	tib_tx_r	tib_ty_r	pat_angle_r	pat_tx_r	pat_ty_r	ankle_angle_r	subtalar_angle_r	mtp_angle_r
      0.00000000000000000000	      0.00000000000000000000	      0.71778982474326747000	    -57.02666110642921600000	      0.00458452660656887610	     -0.47506595219974523000	     17.32704673992813900000	      0.04368639493892341500	     -0.02303361976453052000	     -1.21450888565316630000	      0.00000000000000000000	      0.00000000000000000000
      0.00100000000000000000	     -0.00000000000000000197	      0.86635710901717766000	    -57.27038235313818100000	      0.00460516424740182830	     -0.47513862262019213000	     17.33345361841620400000	      0.04361552743950675200	     -0.02302459609367027800	     -1.28086402746749540000	      0.00000000000000000603	      0.00000000000000000560
      0.00200000000000000000	     -0.00000000000000000412	      1.01448645831033590000	    -57.51161296600894000000	      0.00462529352606095690	     -0.47521068986909870000	     17.33968582253854500000	      0.04354528349534084200	     -0.02301567225287896500	     -1.34542998417550930000	      0.00000000000000001096	      0.00000000000000001463
      0.00300000000000000010	     -0.00000000000000000647	      1.16202257434392760000	    -57.74946883942782700000	      0.00464473408428738540	     -0.47528193974790567000	     17.34568142488516100000	      0.04347588450667920500	     -0.02300688366939876800	     -1.40757401984110400000	      0.00000000000000001429	      0.00000000000000002828
      0.00400000000000000010	     -0.00000000000000000883	      1.30955869037751940000	    -57.98732471284671400000	      0.00466417464251381310	     -0.47535318962671264000	     17.35167702723177600000	      0.04340648551801756100	     -0.02299809508591857100	     -1.46971805550669870000	      0.00000000000000001763	      0.00000000000000004194
      0.00500000000000000010	     -0.00000000000000001057	      1.45602222076721730000	    -58.21872052205823400000	      0.00468232079685418440	     -0.47542285021657438000	     17.35724114898176000000	      0.04333871902962781200	     -0.02298956263264491000	     -1.52691870406475120000	      0.00000000000000000428	      0.00000000000000008066
      0.00600000000000000010	     -0.00000000000000001226	      1.60239542803291270000	    -58.44957232512554400000	      0.00470035794861431780	     -0.47549237697139618000	     17.36276893547436400000	      0.04327109001513147800	     -0.02298105174825998100	     -1.58370306682851880000	     -0.00000000000000001046	      0.00000000000000012149
      0.00700000000000000010	     -0.00000000000000001123	      1.74833645838957710000	    -58.67757723341259200000	      0.00471783372951184270	     -0.47556119294568971000	     17.36811568969120500000	      0.04320418667740221600	     -0.02297265251092070100	     -1.63790856188982590000	     -0.00000000000000002547	      0.00000000000000016653
      0.00800000000000000020	     -0.00000000000000000646	      1.89368634998025320000	    -58.90168811165745700000	      0.00473454165800436900	     -0.47562903670255197000	     17.37321482494956000000	      0.04313827593242752100	     -0.02296440598626785900	     -1.68858663880494290000	     -0.00000000000000004084	      0.00000000000000021733
      0.00900000000000000110	     -0.00000000000000000169	      2.03903624157092930000	    -59.12579898990232900000	      0.00475124958649689440	     -0.47569688045941416000	     17.37831396020791200000	      0.04307236518745283200	     -0.02295615946161501700	     -1.73926471572006000000	     -0.00000000000000005620	      0.00000000000000026814
      0.01000000000000000000	      0.00000000000000000951	      2.18366534719664920000	    -59.34460843431946800000	      0.00476692726674547450	     -0.47576338392892525000	     17.38309057264053300000	      0.04300781586869571000	     -0.02294811890307131600	     -1.78474965427820490000	     -0.00000000000000006521	      0.00000000000000032825
      0.01099999999999999900	      0.00000000000000002126	      2.32823375497463750000	    -59.56297144159871200000	      0.00478251818912961680	     -0.47582977453198011000	     17.38784002521944700000	      0.04294338119651229500	     -0.02294009568906557600	     -1.82979727532939900000	     -0.00000000000000007369	      0.00000000000000038915
      0.01200000000000000000	      0.00000000000000003917	      2.47213685751975460000	    -59.77574693104657700000	      0.00479704518012168640	     -0.47589473351122563000	     17.39226582747706800000	      0.04288039334919628600	     -0.02293228759226518700	     -1.86911881414491580000	     -0.00000000000000010688	      0.00000000000000049138
      0.01300000000000000100	      0.00000000000000005707	      2.61603996006487180000	    -59.98852242049444800000	      0.00481157217111375600	     -0.47595969249047110000	     17.39669162973469000000	      0.04281740550188028300	     -0.02292447949546479900	     -1.90844035296043260000	     -0.00000000000000014006	      0.00000000000000059361
      0.01400000000000000000	      0.00000000000000008250	      2.75962477649975700000	    -60.19819654425261000000	      0.00482552682468939070	     -0.47602384531227576000	     17.40094744593626400000	      0.04275522764850646400	     -0.02291679145592522000	     -1.94389494572859430000	     -0.00000000000000018039	      0.00000000000000069785
      0.01499999999999999900	      0.00000000000000011544	      2.90289130682440980000	    -60.40476930232107800000	      0.00483890914084858950	     -0.47608719197663951000	     17.40503327608178800000	      0.04269385978907482700	     -0.02290922347364645500	     -1.97548259244940080000	     -0.00000000000000022786	      0.00000000000000080410
      0.01600000000000000000	      0.00000000000000014838	      3.04615783714906300000	    -60.61134206038954600000	      0.00485229145700778830	     -0.47615053864100332000	     17.40911910622731200000	      0.04263249192964319700	     -0.02290165549136769000	     -2.00707023917020730000	     -0.00000000000000027534	      0.00000000000000091035
